<svg id="b1" xmlns="http://www.w3.org/2000/svg" width="379.75" height="139" viewBox="0 0 379.75 139">
  <defs>
    <style>
      .cls-1, .cls-2 {
        fill-rule: evenodd;
      }

      .cls-2 {
        fill: #fc0;
      }
    </style>
  </defs>
  <path id="_com" data-name=" com" class="cls-1" d="M335.583,318.551a25.929,25.929,0,0,0,5.574,9.954,26.544,26.544,0,0,0,9.726,6.654,36.833,36.833,0,0,0,14.106,2.446,48.829,48.829,0,0,0,9.783-.91,39.824,39.824,0,0,0,7.394-2.161l-2.389-13.878a28.031,28.031,0,0,1-6.484,1.82,41.465,41.465,0,0,1-6.6.568q-8.646,0-12.115-4.436T351.111,306.1q0-7.62,3.7-12.286t11.2-4.664a27.3,27.3,0,0,1,6.37.683,42.915,42.915,0,0,1,5.233,1.592l3.526-13.537a42.7,42.7,0,0,0-7.735-2.446,41.917,41.917,0,0,0-8.759-.853,31.931,31.931,0,0,0-12.969,2.5,28.617,28.617,0,0,0-15.755,16.779,35.248,35.248,0,0,0-2.1,12.229A42.206,42.206,0,0,0,335.583,318.551Zm108.922-25.425a28.921,28.921,0,0,0-6.029-9.9,27.015,27.015,0,0,0-9.271-6.371,30.347,30.347,0,0,0-11.887-2.275,30.039,30.039,0,0,0-11.774,2.275,27.585,27.585,0,0,0-9.328,6.371,29.146,29.146,0,0,0-6.143,9.9,35.735,35.735,0,0,0-2.218,12.855,37.037,37.037,0,0,0,2.161,12.911,29.4,29.4,0,0,0,6.029,10.011,26.587,26.587,0,0,0,9.271,6.427,30.644,30.644,0,0,0,12,2.275,30.96,30.96,0,0,0,12.115-2.275A26.615,26.615,0,0,0,438.7,328.9a28.061,28.061,0,0,0,5.915-10.011,38.9,38.9,0,0,0,2.048-12.911A36.6,36.6,0,0,0,444.505,293.126Zm-18.257,25.311a10.154,10.154,0,0,1-8.93,4.607,10.291,10.291,0,0,1-8.987-4.607q-3.186-4.607-3.185-12.456t3.185-12.343a10.373,10.373,0,0,1,8.987-4.493,10.233,10.233,0,0,1,8.93,4.493q3.126,4.5,3.128,12.343T426.248,318.437Zm66.376,17.576h16.95V303.365q0-3.3-.228-6.2a25.974,25.974,0,0,0-1.024-5.517,14.825,14.825,0,0,1,4.039-1.707,15.256,15.256,0,0,1,3.81-.682q5.119,0,7.224,3.412t2.1,11.6v31.738h16.95V302.227a55.768,55.768,0,0,0-1.024-11.148,21.3,21.3,0,0,0-3.754-8.646,17.752,17.752,0,0,0-7.337-5.631,29.908,29.908,0,0,0-11.774-1.99,31.675,31.675,0,0,0-17.063,5.574,23.811,23.811,0,0,0-6.655-3.925,28.246,28.246,0,0,0-10.522-1.649q-3.3,0-6.712.284t-6.655.8q-3.241.513-6.143,1.138t-5.062,1.194v57.789H476.7V289.828q1.592-.228,3.3-0.4t3.3-.17q5.12,0,7.223,3.412t2.105,11.6v31.738Z" transform="translate(-238.094 -274.594)"/>
  <path id="house" class="cls-1" d="M323.206,412.013v-45.5q1.591-.453,3.583-0.853a21.764,21.764,0,0,1,4.266-.4q5.688,0,7.793,3.412t2.1,11.6v31.738H357.9V378.227a48.058,48.058,0,0,0-1.195-11.148,21.779,21.779,0,0,0-4.095-8.646,18.832,18.832,0,0,0-7.735-5.631,32.027,32.027,0,0,0-12.115-1.99,27.433,27.433,0,0,0-5.176.512,35.3,35.3,0,0,0-4.38,1.08V323.738l-16.95,2.73v85.545h16.95Zm103.859-42.887a28.952,28.952,0,0,0-6.029-9.9,27.042,27.042,0,0,0-9.272-6.371,31.9,31.9,0,0,0-23.661,0,27.6,27.6,0,0,0-9.328,6.371,29.162,29.162,0,0,0-6.143,9.9,35.735,35.735,0,0,0-2.218,12.855,37.037,37.037,0,0,0,2.161,12.911A29.4,29.4,0,0,0,378.6,404.9a26.591,26.591,0,0,0,9.272,6.427,30.639,30.639,0,0,0,12,2.275,30.956,30.956,0,0,0,12.115-2.275,26.615,26.615,0,0,0,9.271-6.427,28.061,28.061,0,0,0,5.915-10.011,38.9,38.9,0,0,0,2.048-12.911A36.625,36.625,0,0,0,427.065,369.126Zm-18.258,25.311a10.153,10.153,0,0,1-8.93,4.607,10.291,10.291,0,0,1-8.987-4.607q-3.186-4.607-3.185-12.456t3.185-12.343a10.373,10.373,0,0,1,8.987-4.493,10.232,10.232,0,0,1,8.93,4.493q3.127,4.5,3.128,12.343T408.807,394.437Zm84.577-42.26h-16.95v46.185q-1.595.229-3.64,0.4t-3.868.171q-5.916,0-8.076-3.641t-2.162-11.83V352.177H441.739v33.33a47.369,47.369,0,0,0,1.251,11.262,22.388,22.388,0,0,0,4.209,8.816,19.231,19.231,0,0,0,8.02,5.745,34.026,34.026,0,0,0,12.684,2.048,91.659,91.659,0,0,0,14.333-1.081,94.282,94.282,0,0,0,11.148-2.332V352.177Zm24.115,46.7a55.453,55.453,0,0,1-8.873-2.674l-2.844,13.765a53.527,53.527,0,0,0,7.338,2.275,54.1,54.1,0,0,0,13.252,1.365q12.171,0,18.827-4.539t6.655-13.395a22.945,22.945,0,0,0-.853-6.582,13.406,13.406,0,0,0-2.958-5.165,22.056,22.056,0,0,0-5.745-4.334,69.743,69.743,0,0,0-9.214-4.072q-2.73-1.029-4.494-1.891a19.165,19.165,0,0,1-2.787-1.6,3.878,3.878,0,0,1-1.365-1.536,4.583,4.583,0,0,1-.341-1.82q0-4.435,7.963-4.436a35.05,35.05,0,0,1,7.792.8,62.765,62.765,0,0,1,6.428,1.82l2.957-13.195a48.8,48.8,0,0,0-7.963-2.105,55.219,55.219,0,0,0-10.465-.967q-10.921,0-17.177,4.892a15.988,15.988,0,0,0-6.257,13.309,19.561,19.561,0,0,0,1.251,7.394,15.394,15.394,0,0,0,3.527,5.29,21.187,21.187,0,0,0,5.517,3.811,77.123,77.123,0,0,0,7.223,3.071,47.712,47.712,0,0,1,7.622,3.47q2.5,1.536,2.5,3.583a3.516,3.516,0,0,1-1.934,3.527q-1.936.912-6.6,0.91A43.117,43.117,0,0,1,517.5,398.874Zm46.013-4.039a25.934,25.934,0,0,0,5.8,9.84,27.329,27.329,0,0,0,9.9,6.541,37.7,37.7,0,0,0,14.049,2.389,59.653,59.653,0,0,0,6.371-.341q3.183-.342,5.972-0.853a47.7,47.7,0,0,0,5.062-1.195,23.432,23.432,0,0,0,3.64-1.365l-2.275-13.764a34.544,34.544,0,0,1-7.337,2.1,48.981,48.981,0,0,1-9.157.853q-7.283,0-11.6-3.071a11.255,11.255,0,0,1-4.891-8.3h38.45q0.111-1.365.227-3.129t0.114-3.242q0-15.127-7.394-22.922T590.3,350.584a28.676,28.676,0,0,0-10.637,2.048,26.732,26.732,0,0,0-9.157,6.029,29.861,29.861,0,0,0-6.427,9.954,36.564,36.564,0,0,0-2.446,13.935A38.978,38.978,0,0,0,563.512,394.835Zm15.528-18.769a24.165,24.165,0,0,1,1.08-4.266,11.467,11.467,0,0,1,2.105-3.7,10.112,10.112,0,0,1,3.413-2.56,11.39,11.39,0,0,1,4.891-.967,10.749,10.749,0,0,1,4.949,1.024,10.333,10.333,0,0,1,3.3,2.616,10.531,10.531,0,0,1,1.933,3.641,17.616,17.616,0,0,1,.74,4.209H579.04Z" transform="translate(-238.094 -274.594)"/>
  <path id="e_copy_11" data-name="e copy 11" class="cls-1" d="M239.956,318.835a25.944,25.944,0,0,0,5.8,9.84,27.341,27.341,0,0,0,9.9,6.541,37.7,37.7,0,0,0,14.049,2.389,59.681,59.681,0,0,0,6.371-.341q3.183-.342,5.972-0.853a47.7,47.7,0,0,0,5.062-1.195,23.432,23.432,0,0,0,3.64-1.365l-2.275-13.764a34.544,34.544,0,0,1-7.337,2.1,48.984,48.984,0,0,1-9.158.853q-7.281,0-11.6-3.071a11.255,11.255,0,0,1-4.891-8.3h38.449q0.112-1.365.228-3.129c0.074-1.174.114-2.255,0.114-3.242q0-15.127-7.395-22.922t-20.134-7.792a28.673,28.673,0,0,0-10.637,2.048,26.732,26.732,0,0,0-9.157,6.029,29.845,29.845,0,0,0-6.427,9.954,36.564,36.564,0,0,0-2.446,13.935A38.978,38.978,0,0,0,239.956,318.835Zm15.528-18.769a24.165,24.165,0,0,1,1.08-4.266,11.467,11.467,0,0,1,2.1-3.7,10.108,10.108,0,0,1,3.412-2.56,11.4,11.4,0,0,1,4.892-.967,10.741,10.741,0,0,1,4.948,1.024,10.322,10.322,0,0,1,3.3,2.616,10.542,10.542,0,0,1,1.934,3.641,17.616,17.616,0,0,1,.74,4.209h-22.41Z" transform="translate(-238.094 -274.594)"/>
  <path id="Rectangle_6_copy_27" data-name="Rectangle 6 copy 27" class="cls-1" d="M555.413,319.359l16.725-2v18.725H555.413V319.359Z" transform="translate(-238.094 -274.594)"/>
  <path id="Rectangle_6_copy_27-2" data-name="Rectangle 6 copy 27" class="cls-2" d="M306.177,294.708h16.771V311.48l-16.771,3V294.708Z" transform="translate(-238.094 -274.594)"/>
</svg>